{
  "accessors": [
    {
      "bufferView": 1,
      "componentType": 5126,
      "count": 1122,
      "max": [1.6495466232299805, 1.1169146299362183, 1.8115977048873901],
      "min": [-1.3266948461532593, -0.27879270911216736, -2.1002395153045654],
      "type": "VEC3"
    },
    {
      "bufferView": 1,
      "byteOffset": 13464,
      "componentType": 5126,
      "count": 1122,
      "max": [0.9999587535858154, 0.9992489814758301, 0.9999911189079285],
      "min": [-0.9981802105903625, -0.9991711974143982, -0.9999909996986389],
      "type": "VEC3"
    },
    { "bufferView": 0, "componentType": 5125, "count": 3420, "type": "SCALAR" }
  ],
  "asset": {
    "extras": {
      "author": "Saleyu (https://sketchfab.com/Saleyu)",
      "license": "CC-BY-4.0 (http://creativecommons.org/licenses/by/4.0/)",
      "source": "https://sketchfab.com/3d-models/tsuru-origami-33603e1cf2ac47ec875ca51c7023a3c2",
      "title": "Tsuru - Origami"
    },
    "generator": "Sketchfab-12.67.0",
    "version": "2.0"
  },
  "bufferViews": [
    {
      "buffer": 0,
      "byteLength": 13680,
      "name": "floatBufferViews",
      "target": 34963
    },
    {
      "buffer": 0,
      "byteLength": 26928,
      "byteOffset": 13680,
      "byteStride": 12,
      "name": "floatBufferViews",
      "target": 34962
    }
  ],
  "buffers": [
    {
      "byteLength": 40608,
      "uri": "data:application/octet-stream;base64,"
    }
  ],
  "materials": [
    {
      "doubleSided": true,
      "name": "lambert2",
      "pbrMetallicRoughness": {
        "baseColorFactor": [0.5, 0.5, 0.5, 1],
        "metallicFactor": 0,
        "roughnessFactor": 0.6
      }
    }
  ],
  "meshes": [
    {
      "name": "Tsuru_lambert2_0",
      "primitives": [
        {
          "attributes": { "NORMAL": 1, "POSITION": 0 },
          "indices": 2,
          "material": 0,
          "mode": 4
        }
      ]
    }
  ],
  "nodes": [
    {
      "children": [1],
      "matrix": [
        1, 0, 0, 0, 0, 2.220446049250313e-16, -1, 0, 0, 1,
        2.220446049250313e-16, 0, 0, 0, 0, 1
      ],
      "name": "Sketchfab_model"
    },
    {
      "children": [2],
      "matrix": [
        0.009999999776482582, 0, 0, 0, 0, 0, 0.009999999776482582, 0, 0,
        -0.009999999776482582, 0, 0, 0, 0, 0, 1
      ],
      "name": "c1bf96e6e3fc4b398284dbdadecf8ce3.fbx"
    },
    { "children": [3], "name": "RootNode" },
    {
      "children": [4],
      "matrix": [10, 0, 0, 0, 0, 10, 0, 0, 0, 0, 10, 0, 0, 0, 0, 1],
      "name": "Tsuru"
    },
    { "mesh": 0, "name": "Tsuru_lambert2_0" }
  ],
  "scene": 0,
  "scenes": [{ "name": "Sketchfab_Scene", "nodes": [0] }]
}
